<mxfile host="app.diagrams.net" modified="2023-08-14T19:21:00.148Z" agent="Mozilla/5.0 (Windows NT 10.0; Win64; x64) AppleWebKit/537.36 (KHTML, like Gecko) Chrome/115.0.0.0 Safari/537.36" etag="8C1J7h6XfRtmOnYevI_f" version="21.6.8">
  <diagram name="PÃ¡gina-1" id="BsoZeClsR0U82KouOqyx">
    <mxGraphModel dx="2261" dy="768" grid="1" gridSize="10" guides="1" tooltips="1" connect="1" arrows="1" fold="1" page="1" pageScale="1" pageWidth="827" pageHeight="1169" math="0" shadow="0">
      <root>
        <mxCell id="0" />
        <mxCell id="1" parent="0" />
        <mxCell id="9vdvpnOu38ZFY94GTGz4-22" style="edgeStyle=orthogonalEdgeStyle;rounded=0;orthogonalLoop=1;jettySize=auto;html=1;exitX=0.5;exitY=1;exitDx=0;exitDy=0;entryX=0.5;entryY=0;entryDx=0;entryDy=0;" edge="1" parent="1" source="9vdvpnOu38ZFY94GTGz4-5" target="9vdvpnOu38ZFY94GTGz4-6">
          <mxGeometry relative="1" as="geometry" />
        </mxCell>
        <mxCell id="9vdvpnOu38ZFY94GTGz4-51" style="edgeStyle=orthogonalEdgeStyle;rounded=0;orthogonalLoop=1;jettySize=auto;html=1;exitX=0.5;exitY=1;exitDx=0;exitDy=0;entryX=0;entryY=0.5;entryDx=0;entryDy=0;" edge="1" parent="1" source="9vdvpnOu38ZFY94GTGz4-5" target="9vdvpnOu38ZFY94GTGz4-48">
          <mxGeometry relative="1" as="geometry" />
        </mxCell>
        <mxCell id="9vdvpnOu38ZFY94GTGz4-5" value="Engaged Foes" style="rounded=0;whiteSpace=wrap;html=1;" vertex="1" parent="1">
          <mxGeometry x="200" y="120" width="120" height="40" as="geometry" />
        </mxCell>
        <mxCell id="9vdvpnOu38ZFY94GTGz4-11" style="edgeStyle=orthogonalEdgeStyle;rounded=0;orthogonalLoop=1;jettySize=auto;html=1;exitX=0.5;exitY=1;exitDx=0;exitDy=0;entryX=0.5;entryY=0;entryDx=0;entryDy=0;" edge="1" parent="1" source="9vdvpnOu38ZFY94GTGz4-6" target="9vdvpnOu38ZFY94GTGz4-7">
          <mxGeometry relative="1" as="geometry" />
        </mxCell>
        <mxCell id="9vdvpnOu38ZFY94GTGz4-12" style="edgeStyle=orthogonalEdgeStyle;rounded=0;orthogonalLoop=1;jettySize=auto;html=1;exitX=0.5;exitY=1;exitDx=0;exitDy=0;entryX=0.5;entryY=0;entryDx=0;entryDy=0;" edge="1" parent="1" source="9vdvpnOu38ZFY94GTGz4-6" target="9vdvpnOu38ZFY94GTGz4-8">
          <mxGeometry relative="1" as="geometry" />
        </mxCell>
        <mxCell id="9vdvpnOu38ZFY94GTGz4-13" style="edgeStyle=orthogonalEdgeStyle;rounded=0;orthogonalLoop=1;jettySize=auto;html=1;exitX=0.5;exitY=1;exitDx=0;exitDy=0;entryX=0.5;entryY=0;entryDx=0;entryDy=0;" edge="1" parent="1" source="9vdvpnOu38ZFY94GTGz4-6" target="9vdvpnOu38ZFY94GTGz4-9">
          <mxGeometry relative="1" as="geometry" />
        </mxCell>
        <mxCell id="9vdvpnOu38ZFY94GTGz4-6" value="Attacks" style="rounded=0;whiteSpace=wrap;html=1;" vertex="1" parent="1">
          <mxGeometry x="200" y="280" width="120" height="40" as="geometry" />
        </mxCell>
        <mxCell id="9vdvpnOu38ZFY94GTGz4-27" style="edgeStyle=orthogonalEdgeStyle;rounded=0;orthogonalLoop=1;jettySize=auto;html=1;exitX=0.5;exitY=1;exitDx=0;exitDy=0;entryX=0.5;entryY=0;entryDx=0;entryDy=0;" edge="1" parent="1" source="9vdvpnOu38ZFY94GTGz4-7" target="9vdvpnOu38ZFY94GTGz4-25">
          <mxGeometry relative="1" as="geometry" />
        </mxCell>
        <mxCell id="9vdvpnOu38ZFY94GTGz4-7" value="At = Df" style="rounded=0;whiteSpace=wrap;html=1;" vertex="1" parent="1">
          <mxGeometry x="220" y="440" width="80" height="40" as="geometry" />
        </mxCell>
        <mxCell id="9vdvpnOu38ZFY94GTGz4-47" style="edgeStyle=orthogonalEdgeStyle;rounded=0;orthogonalLoop=1;jettySize=auto;html=1;exitX=1;exitY=0.5;exitDx=0;exitDy=0;entryX=0;entryY=0.5;entryDx=0;entryDy=0;" edge="1" parent="1" source="9vdvpnOu38ZFY94GTGz4-8" target="9vdvpnOu38ZFY94GTGz4-10">
          <mxGeometry relative="1" as="geometry" />
        </mxCell>
        <mxCell id="9vdvpnOu38ZFY94GTGz4-8" value="At &amp;gt; Df" style="rounded=0;whiteSpace=wrap;html=1;" vertex="1" parent="1">
          <mxGeometry x="320" y="440" width="80" height="40" as="geometry" />
        </mxCell>
        <mxCell id="9vdvpnOu38ZFY94GTGz4-42" style="edgeStyle=orthogonalEdgeStyle;rounded=0;orthogonalLoop=1;jettySize=auto;html=1;exitX=0.5;exitY=1;exitDx=0;exitDy=0;" edge="1" parent="1" source="9vdvpnOu38ZFY94GTGz4-9" target="9vdvpnOu38ZFY94GTGz4-32">
          <mxGeometry relative="1" as="geometry" />
        </mxCell>
        <mxCell id="9vdvpnOu38ZFY94GTGz4-9" value="At &amp;lt; Df" style="rounded=0;whiteSpace=wrap;html=1;" vertex="1" parent="1">
          <mxGeometry x="120" y="440" width="80" height="40" as="geometry" />
        </mxCell>
        <mxCell id="9vdvpnOu38ZFY94GTGz4-46" style="edgeStyle=orthogonalEdgeStyle;rounded=0;orthogonalLoop=1;jettySize=auto;html=1;exitX=0;exitY=0.5;exitDx=0;exitDy=0;entryX=0;entryY=0.5;entryDx=0;entryDy=0;" edge="1" parent="1" source="9vdvpnOu38ZFY94GTGz4-25" target="9vdvpnOu38ZFY94GTGz4-5">
          <mxGeometry relative="1" as="geometry">
            <Array as="points">
              <mxPoint y="720" />
              <mxPoint y="140" />
            </Array>
          </mxGeometry>
        </mxCell>
        <mxCell id="9vdvpnOu38ZFY94GTGz4-25" value="Blocked, Dodged, Parryed, etc...&lt;br&gt;Back to the &quot;Ebgaged&quot; Step" style="rounded=0;whiteSpace=wrap;html=1;" vertex="1" parent="1">
          <mxGeometry x="160" y="680" width="200" height="80" as="geometry" />
        </mxCell>
        <mxCell id="9vdvpnOu38ZFY94GTGz4-43" style="edgeStyle=orthogonalEdgeStyle;rounded=0;orthogonalLoop=1;jettySize=auto;html=1;exitX=0;exitY=0.5;exitDx=0;exitDy=0;entryX=0;entryY=0.5;entryDx=0;entryDy=0;" edge="1" parent="1" source="9vdvpnOu38ZFY94GTGz4-32" target="9vdvpnOu38ZFY94GTGz4-6">
          <mxGeometry relative="1" as="geometry" />
        </mxCell>
        <mxCell id="9vdvpnOu38ZFY94GTGz4-32" value="Blocked, Dodged, Parryed, etc...&lt;br&gt;Opening for Defender Attack" style="rounded=0;whiteSpace=wrap;html=1;" vertex="1" parent="1">
          <mxGeometry x="40" y="560" width="200" height="80" as="geometry" />
        </mxCell>
        <mxCell id="9vdvpnOu38ZFY94GTGz4-38" value="" style="group" vertex="1" connectable="0" parent="1">
          <mxGeometry x="440" y="440" width="585" height="360" as="geometry" />
        </mxCell>
        <mxCell id="9vdvpnOu38ZFY94GTGz4-16" value="End of Engagement" style="rounded=0;whiteSpace=wrap;html=1;fillColor=#f8cecc;strokeColor=#b85450;" vertex="1" parent="9vdvpnOu38ZFY94GTGz4-38">
          <mxGeometry x="465" y="120" width="120" height="40" as="geometry" />
        </mxCell>
        <mxCell id="9vdvpnOu38ZFY94GTGz4-19" style="edgeStyle=orthogonalEdgeStyle;rounded=0;orthogonalLoop=1;jettySize=auto;html=1;exitX=1;exitY=0.5;exitDx=0;exitDy=0;entryX=0;entryY=0.5;entryDx=0;entryDy=0;" edge="1" parent="9vdvpnOu38ZFY94GTGz4-38" source="9vdvpnOu38ZFY94GTGz4-14" target="9vdvpnOu38ZFY94GTGz4-16">
          <mxGeometry relative="1" as="geometry" />
        </mxCell>
        <mxCell id="9vdvpnOu38ZFY94GTGz4-20" style="edgeStyle=orthogonalEdgeStyle;rounded=0;orthogonalLoop=1;jettySize=auto;html=1;exitX=1;exitY=0.5;exitDx=0;exitDy=0;entryX=0;entryY=0.5;entryDx=0;entryDy=0;" edge="1" parent="9vdvpnOu38ZFY94GTGz4-38" source="9vdvpnOu38ZFY94GTGz4-17" target="9vdvpnOu38ZFY94GTGz4-16">
          <mxGeometry relative="1" as="geometry" />
        </mxCell>
        <mxCell id="9vdvpnOu38ZFY94GTGz4-37" value="" style="group" vertex="1" connectable="0" parent="9vdvpnOu38ZFY94GTGz4-38">
          <mxGeometry width="385" height="360" as="geometry" />
        </mxCell>
        <mxCell id="9vdvpnOu38ZFY94GTGz4-10" value="Roll Damage Table" style="rounded=0;whiteSpace=wrap;html=1;" vertex="1" parent="9vdvpnOu38ZFY94GTGz4-37">
          <mxGeometry width="120" height="40" as="geometry" />
        </mxCell>
        <mxCell id="9vdvpnOu38ZFY94GTGz4-31" value="" style="group" vertex="1" connectable="0" parent="9vdvpnOu38ZFY94GTGz4-37">
          <mxGeometry x="105" y="80" width="280" height="280" as="geometry" />
        </mxCell>
        <mxCell id="9vdvpnOu38ZFY94GTGz4-14" value="Defender Death" style="rounded=0;whiteSpace=wrap;html=1;" vertex="1" parent="9vdvpnOu38ZFY94GTGz4-31">
          <mxGeometry width="280" height="40" as="geometry" />
        </mxCell>
        <mxCell id="9vdvpnOu38ZFY94GTGz4-15" value="Defender Injured, attackers turn again" style="rounded=0;whiteSpace=wrap;html=1;" vertex="1" parent="9vdvpnOu38ZFY94GTGz4-31">
          <mxGeometry y="160" width="280" height="40" as="geometry" />
        </mxCell>
        <mxCell id="9vdvpnOu38ZFY94GTGz4-17" value="Unconcious Defender" style="rounded=0;whiteSpace=wrap;html=1;" vertex="1" parent="9vdvpnOu38ZFY94GTGz4-31">
          <mxGeometry y="80" width="280" height="40" as="geometry" />
        </mxCell>
        <mxCell id="9vdvpnOu38ZFY94GTGz4-18" value="Defender Injured, Engaged Stance Again" style="rounded=0;whiteSpace=wrap;html=1;" vertex="1" parent="9vdvpnOu38ZFY94GTGz4-31">
          <mxGeometry y="240" width="280" height="40" as="geometry" />
        </mxCell>
        <mxCell id="9vdvpnOu38ZFY94GTGz4-33" style="edgeStyle=orthogonalEdgeStyle;rounded=0;orthogonalLoop=1;jettySize=auto;html=1;exitX=0.5;exitY=1;exitDx=0;exitDy=0;entryX=0;entryY=0.5;entryDx=0;entryDy=0;" edge="1" parent="9vdvpnOu38ZFY94GTGz4-37" source="9vdvpnOu38ZFY94GTGz4-10" target="9vdvpnOu38ZFY94GTGz4-14">
          <mxGeometry relative="1" as="geometry" />
        </mxCell>
        <mxCell id="9vdvpnOu38ZFY94GTGz4-35" style="edgeStyle=orthogonalEdgeStyle;rounded=0;orthogonalLoop=1;jettySize=auto;html=1;exitX=0.5;exitY=1;exitDx=0;exitDy=0;entryX=0;entryY=0.5;entryDx=0;entryDy=0;" edge="1" parent="9vdvpnOu38ZFY94GTGz4-37" source="9vdvpnOu38ZFY94GTGz4-10" target="9vdvpnOu38ZFY94GTGz4-15">
          <mxGeometry relative="1" as="geometry" />
        </mxCell>
        <mxCell id="9vdvpnOu38ZFY94GTGz4-34" style="edgeStyle=orthogonalEdgeStyle;rounded=0;orthogonalLoop=1;jettySize=auto;html=1;exitX=0.5;exitY=1;exitDx=0;exitDy=0;entryX=0;entryY=0.5;entryDx=0;entryDy=0;" edge="1" parent="9vdvpnOu38ZFY94GTGz4-37" source="9vdvpnOu38ZFY94GTGz4-10" target="9vdvpnOu38ZFY94GTGz4-17">
          <mxGeometry relative="1" as="geometry" />
        </mxCell>
        <mxCell id="9vdvpnOu38ZFY94GTGz4-36" style="edgeStyle=orthogonalEdgeStyle;rounded=0;orthogonalLoop=1;jettySize=auto;html=1;exitX=0.5;exitY=1;exitDx=0;exitDy=0;entryX=0;entryY=0.5;entryDx=0;entryDy=0;" edge="1" parent="9vdvpnOu38ZFY94GTGz4-37" source="9vdvpnOu38ZFY94GTGz4-10" target="9vdvpnOu38ZFY94GTGz4-18">
          <mxGeometry relative="1" as="geometry" />
        </mxCell>
        <mxCell id="9vdvpnOu38ZFY94GTGz4-44" style="edgeStyle=orthogonalEdgeStyle;rounded=0;orthogonalLoop=1;jettySize=auto;html=1;exitX=1;exitY=0.5;exitDx=0;exitDy=0;entryX=1;entryY=0.5;entryDx=0;entryDy=0;" edge="1" parent="1" source="9vdvpnOu38ZFY94GTGz4-18" target="9vdvpnOu38ZFY94GTGz4-5">
          <mxGeometry relative="1" as="geometry">
            <Array as="points">
              <mxPoint x="1080" y="780" />
              <mxPoint x="1080" y="140" />
            </Array>
          </mxGeometry>
        </mxCell>
        <mxCell id="9vdvpnOu38ZFY94GTGz4-45" style="edgeStyle=orthogonalEdgeStyle;rounded=0;orthogonalLoop=1;jettySize=auto;html=1;exitX=1;exitY=0.5;exitDx=0;exitDy=0;entryX=1;entryY=0.5;entryDx=0;entryDy=0;" edge="1" parent="1" source="9vdvpnOu38ZFY94GTGz4-15" target="9vdvpnOu38ZFY94GTGz4-6">
          <mxGeometry relative="1" as="geometry">
            <Array as="points">
              <mxPoint x="1040" y="700" />
              <mxPoint x="1040" y="300" />
            </Array>
          </mxGeometry>
        </mxCell>
        <mxCell id="9vdvpnOu38ZFY94GTGz4-48" value="Characters are interrupted or choose to disingage." style="rounded=0;whiteSpace=wrap;html=1;" vertex="1" parent="1">
          <mxGeometry x="360" y="200" width="360" height="40" as="geometry" />
        </mxCell>
      </root>
    </mxGraphModel>
  </diagram>
</mxfile>
